<svg width="22" height="22" viewBox="0 0 22 22" fill="none" xmlns="http://www.w3.org/2000/svg">
<path d="M13.1706 19.8905C17.3536 19.6125 20.6856 16.2332 20.9598 11.9909C21.0134 11.1607 21.0134 10.3009 20.9598 9.47072C20.6856 5.22838 17.3536 1.84913 13.1706 1.57107C11.7435 1.47621 10.2536 1.47641 8.8294 1.57107C4.64639 1.84913 1.31441 5.22838 1.04024 9.47072C0.986587 10.3009 0.986587 11.1607 1.04024 11.9909C1.1401 13.536 1.82343 14.9666 2.62791 16.1746C3.09501 17.0203 2.78674 18.0758 2.30021 18.9978C1.94941 19.6626 1.77401 19.995 1.91484 20.2351C2.05568 20.4752 2.37026 20.4829 2.99943 20.4982C4.24367 20.5285 5.08268 20.1757 5.74868 19.6846C6.1264 19.4061 6.31527 19.2668 6.44544 19.2508C6.5756 19.2348 6.83177 19.3403 7.34401 19.5513C7.8044 19.7409 8.33896 19.8579 8.8294 19.8905C10.2536 19.9852 11.7435 19.9854 13.1706 19.8905Z" stroke="#9EA5B7" stroke-width="1.5" stroke-linejoin="round"/>
<path d="M10.9953 11H11.0042M14.9908 11H14.9998M6.99976 11H7.00873" stroke="#9EA5B7" stroke-width="2" stroke-linecap="round" stroke-linejoin="round"/>
</svg>
