<svg width="20" height="23" viewBox="0 0 20 23" fill="none" xmlns="http://www.w3.org/2000/svg">
<path d="M13 11.5C13 10.3954 13.8954 9.5 15 9.5C17.2091 9.5 19 11.2909 19 13.5C19 15.7091 17.2091 17.5 15 17.5C13.8954 17.5 13 16.6046 13 15.5V11.5Z" stroke="#00100B" stroke-width="1.5"/>
<path d="M7 11.5C7 10.3954 6.10457 9.5 5 9.5C2.79086 9.5 1 11.2909 1 13.5C1 15.7091 2.79086 17.5 5 17.5C6.10457 17.5 7 16.6046 7 15.5V11.5Z" stroke="#00100B" stroke-width="1.5"/>
<path d="M1 13.5V10.5C1 5.52944 5.02944 1.5 10 1.5C14.9706 1.5 19 5.52944 19 10.5V15.3462C19 17.3545 19 18.3586 18.6476 19.1417C18.2465 20.0329 17.5329 20.7465 16.6417 21.1476C15.8586 21.5 14.8545 21.5 12.8462 21.5H10" stroke="#00100B" stroke-width="1.5" stroke-linecap="round" stroke-linejoin="round"/>
</svg>
