<svg width="16" height="20" viewBox="0 0 16 20" fill="none" xmlns="http://www.w3.org/2000/svg">
<path d="M9.66683 1.89105V5.33317C9.66683 5.79988 9.66683 6.03324 9.75766 6.2115C9.83755 6.3683 9.96504 6.49578 10.1218 6.57568C10.3001 6.6665 10.5335 6.6665 11.0002 6.6665H14.4423M14.6668 8.32336V14.3332C14.6668 15.7333 14.6668 16.4334 14.3943 16.9681C14.1547 17.4386 13.7722 17.821 13.3018 18.0607C12.767 18.3332 12.067 18.3332 10.6668 18.3332H5.3335C3.93336 18.3332 3.2333 18.3332 2.69852 18.0607C2.22811 17.821 1.84566 17.4386 1.60598 16.9681C1.3335 16.4334 1.3335 15.7333 1.3335 14.3332V5.6665C1.3335 4.26637 1.3335 3.56631 1.60598 3.03153C1.84566 2.56112 2.22811 2.17867 2.69852 1.93899C3.2333 1.6665 3.93336 1.6665 5.3335 1.6665H8.00998C8.62145 1.6665 8.92719 1.6665 9.21491 1.73558C9.47 1.79682 9.71386 1.89783 9.93754 2.0349C10.1898 2.18951 10.406 2.4057 10.8384 2.83808L13.4953 5.49493C13.9276 5.92731 14.1438 6.1435 14.2984 6.39579C14.4355 6.61947 14.5365 6.86333 14.5978 7.11842C14.6668 7.40614 14.6668 7.71188 14.6668 8.32336Z" stroke="#332C54" stroke-width="1.66667" stroke-linecap="round" stroke-linejoin="round"/>
</svg>
