<svg width="20" height="20" viewBox="0 0 20 20" fill="none" xmlns="http://www.w3.org/2000/svg">
<path d="M9.99994 2.85498C6.05994 2.85498 2.85498 6.06037 2.85498 10.0002C2.85498 13.94 6.05994 17.1449 9.99994 17.1449C13.9397 17.1449 17.1449 13.94 17.1449 10.0002C17.1449 6.06037 13.9398 2.85498 9.99994 2.85498ZM9.99994 16.0179C6.68154 16.0179 3.98197 13.3183 3.98197 10.0001C3.98197 6.68154 6.68154 3.98197 9.99994 3.98197C13.3183 3.98197 16.0179 6.68154 16.0179 10.0001C16.0179 13.3183 13.3183 16.0179 9.99994 16.0179Z" fill="white"/>
<path d="M8.87018 8.59973C8.87018 8.1477 9.53131 8.07051 10.1048 8.07051C10.6453 8.07051 11.3839 8.32383 12.0014 8.64398L12.1224 7.39809C11.8136 7.22152 11.0971 7.01199 10.3694 6.9682L10.5458 5.7002H9.36604L9.54264 6.9682C8.02127 7.11133 7.52502 7.99328 7.52502 8.73203C7.52502 10.5952 10.9976 10.1987 10.9976 11.3448C10.9976 11.7752 10.59 11.9292 9.87319 11.9292C8.90319 11.9292 8.17526 11.5878 7.80069 11.2347L7.61307 12.635C7.9662 12.8445 8.68241 13.0319 9.54264 13.0762L9.36604 14.3H10.5458L10.3694 13.0649C12.1554 12.9105 12.4751 11.9622 12.4751 11.334C12.4751 9.11812 8.87018 9.66906 8.87018 8.59973Z" fill="white"/>
</svg>
