<svg width="14" height="15" viewBox="0 0 14 15" fill="none" xmlns="http://www.w3.org/2000/svg">
<path d="M7.94369 12.9644C7.6907 13.2013 7.35256 13.3337 7.00065 13.3337C6.64874 13.3337 6.31061 13.2013 6.05762 12.9644C3.74093 10.7821 0.636278 8.34436 2.15032 4.80513C2.96895 2.8915 4.93403 1.66699 7.00065 1.66699C9.06727 1.66699 11.0324 2.8915 11.851 4.80513C13.3631 8.3399 10.2661 10.7897 7.94369 12.9644Z" stroke="#141B34" stroke-width="0.875"/>
<path d="M9.04171 6.91667C9.04171 8.04425 8.12762 8.95833 7.00004 8.95833C5.87246 8.95833 4.95837 8.04425 4.95837 6.91667C4.95837 5.78909 5.87246 4.875 7.00004 4.875C8.12762 4.875 9.04171 5.78909 9.04171 6.91667Z" stroke="#141B34" stroke-width="0.875"/>
</svg>
