<svg width="18" height="23" viewBox="0 0 18 23" fill="none" xmlns="http://www.w3.org/2000/svg">
<path d="M4 17.5C2.17107 17.9117 1 18.5443 1 19.2537C1 20.4943 4.58172 21.5 9 21.5C13.4183 21.5 17 20.4943 17 19.2537C17 18.5443 15.8289 17.9117 14 17.5" stroke="#00100B" stroke-width="1.5" stroke-linecap="round"/>
<path d="M11.5 8.5C11.5 9.88071 10.3807 11 9 11C7.61929 11 6.5 9.88071 6.5 8.5C6.5 7.11929 7.61929 6 9 6C10.3807 6 11.5 7.11929 11.5 8.5Z" stroke="#00100B" stroke-width="1.5"/>
<path d="M10.2574 16.9936C9.92012 17.3184 9.46932 17.5 9.00015 17.5C8.53099 17.5 8.08018 17.3184 7.7429 16.9936C4.6543 14.0008 0.51519 10.6575 2.53371 5.80373C3.6251 3.17932 6.24494 1.5 9.00015 1.5C11.7554 1.5 14.3752 3.17933 15.4666 5.80373C17.4826 10.6514 13.3536 14.0111 10.2574 16.9936Z" stroke="#00100B" stroke-width="1.5"/>
</svg>
