<svg width="18" height="23" viewBox="0 0 18 23" fill="none" xmlns="http://www.w3.org/2000/svg">
<path d="M11.491 15H11.5M6.5 15H6.50897" stroke="#00100B" stroke-width="2" stroke-linecap="round" stroke-linejoin="round"/>
<path d="M1.26781 18.3447C1.49269 20.015 2.87613 21.3235 4.55966 21.4009C5.97627 21.466 7.4153 21.5 9 21.5C10.5847 21.5 12.0237 21.466 13.4403 21.4009C15.1239 21.3235 16.5073 20.015 16.7322 18.3447C16.879 17.2547 17 16.1376 17 15C17 13.8624 16.879 12.7453 16.7322 11.6553C16.5073 9.98502 15.1239 8.67649 13.4403 8.59909C12.0237 8.53397 10.5847 8.5 9 8.5C7.4153 8.5 5.97627 8.53397 4.55966 8.59909C2.87613 8.67649 1.49269 9.98502 1.26781 11.6553C1.12105 12.7453 1 13.8624 1 15C1 16.1376 1.12105 17.2547 1.26781 18.3447Z" stroke="#00100B" stroke-width="1.5"/>
<path d="M4.5 8.5V6C4.5 3.51472 6.51472 1.5 9 1.5C11.4853 1.5 13.5 3.51472 13.5 6V8.5" stroke="#00100B" stroke-width="1.5" stroke-linecap="round" stroke-linejoin="round"/>
</svg>
