<svg width="24" height="25" viewBox="0 0 24 25" fill="none" xmlns="http://www.w3.org/2000/svg">
<path d="M15 18.125C14.9264 19.9769 13.3831 21.5494 11.3156 21.4988C10.8346 21.487 10.2401 21.3194 9.05112 20.984C6.18961 20.1768 3.70555 18.8203 3.10956 15.7815C3 15.223 3 14.5944 3 13.3373L3 11.6627C3 10.4056 3 9.77705 3.10956 9.21846C3.70555 6.17965 6.18961 4.82316 9.05112 4.01603C10.2401 3.68064 10.8346 3.51295 11.3156 3.50119C13.3831 3.45061 14.9264 5.02307 15 6.87501" stroke="#00100B" stroke-width="1.5" stroke-linecap="round"/>
<path d="M21 12.5H10M21 12.5C21 11.7998 19.0057 10.4915 18.5 10M21 12.5C21 13.2002 19.0057 14.5085 18.5 15" stroke="#00100B" stroke-width="1.5" stroke-linecap="round" stroke-linejoin="round"/>
</svg>
