<svg width="46" height="32" viewBox="0 0 46 32" fill="none" xmlns="http://www.w3.org/2000/svg">
<rect x="0.5" y="0.5" width="45" height="31" rx="5.5" fill="white"/>
<rect x="0.5" y="0.5" width="45" height="31" rx="5.5" stroke="#F2F4F7"/>
<path fill-rule="evenodd" clip-rule="evenodd" d="M22.9053 22.4392C21.3266 23.7699 19.2787 24.5732 17.0409 24.5732C12.0478 24.5732 8 20.5736 8 15.6399C8 10.7061 12.0478 6.70654 17.0409 6.70654C19.2787 6.70654 21.3266 7.50987 22.9053 8.8406C24.484 7.50987 26.5319 6.70654 28.7697 6.70654C33.7628 6.70654 37.8106 10.7061 37.8106 15.6399C37.8106 20.5736 33.7628 24.5732 28.7697 24.5732C26.5319 24.5732 24.484 23.7699 22.9053 22.4392Z" fill="#ED0006"/>
<path fill-rule="evenodd" clip-rule="evenodd" d="M22.9053 22.4392C24.8492 20.8006 26.0818 18.3625 26.0818 15.6399C26.0818 12.9173 24.8492 10.4791 22.9053 8.8406C24.484 7.50987 26.5319 6.70654 28.7697 6.70654C33.7628 6.70654 37.8106 10.7061 37.8106 15.6399C37.8106 20.5736 33.7628 24.5732 28.7697 24.5732C26.5319 24.5732 24.484 23.7699 22.9053 22.4392Z" fill="#F9A000"/>
<path fill-rule="evenodd" clip-rule="evenodd" d="M22.9055 22.4393C24.8494 20.8008 26.082 18.3627 26.082 15.6401C26.082 12.9175 24.8494 10.4794 22.9055 8.84082C20.9616 10.4794 19.729 12.9175 19.729 15.6401C19.729 18.3627 20.9616 20.8008 22.9055 22.4393Z" fill="#FF5E00"/>
</svg>
