<svg width="22" height="23" viewBox="0 0 22 23" fill="none" xmlns="http://www.w3.org/2000/svg">
<path d="M1.52992 14.2696C1.31727 15.6636 2.268 16.6312 3.43205 17.1134C7.89481 18.9622 14.1052 18.9622 18.5679 17.1134C19.732 16.6312 20.6827 15.6636 20.4701 14.2696C20.3394 13.4129 19.6932 12.6995 19.2144 12.0029C18.5873 11.0793 18.525 10.0718 18.5249 9C18.5249 4.85786 15.1559 1.5 11 1.5C6.84413 1.5 3.47513 4.85786 3.47513 9C3.47503 10.0718 3.41272 11.0793 2.78561 12.0029C2.30684 12.6995 1.66061 13.4129 1.52992 14.2696Z" stroke="#00100B" stroke-width="1.5" stroke-linecap="round" stroke-linejoin="round"/>
<path d="M7 18.5C7.45849 20.2252 9.07553 21.5 11 21.5C12.9245 21.5 14.5415 20.2252 15 18.5" stroke="#00100B" stroke-width="1.5" stroke-linecap="round" stroke-linejoin="round"/>
</svg>
