<svg width="24" height="25" viewBox="0 0 24 25" fill="none" xmlns="http://www.w3.org/2000/svg">
<path d="M11.4706 22.5C7.47751 22.5 5.48098 22.5 4.24049 21.3284C3 20.1569 3 18.2712 3 14.5L3 10.5C3 6.72876 3 4.84315 4.24049 3.67157C5.48098 2.5 7.47752 2.5 11.4706 2.5L12.5294 2.5C16.5225 2.5 18.519 2.5 19.7595 3.67157C21 4.84315 21 6.72876 21 10.5M11.5 22.5H13" stroke="#00100B" stroke-width="1.5" stroke-linecap="round"/>
<path d="M8 7.5H16" stroke="#00100B" stroke-width="1.5" stroke-linecap="round"/>
<path d="M8 12.5H13" stroke="#00100B" stroke-width="1.5" stroke-linecap="round"/>
<path d="M17.5 19.0896L16.5978 22.2428C16.5572 22.4011 16.7139 22.5385 16.8659 22.4778L18.8514 21.6849C18.9468 21.6468 19.0532 21.6468 19.1486 21.6849L21.1531 22.4854C21.3014 22.5446 21.456 22.4149 21.4231 22.2589L20.6589 18.9911M22 16.4951C22 14.841 20.6569 13.5 19 13.5C17.3431 13.5 16 14.841 16 16.4951C16 18.1493 17.3431 19.4902 19 19.4902C20.6569 19.4902 22 18.1493 22 16.4951Z" stroke="#00100B" stroke-width="1.5" stroke-linejoin="round"/>
</svg>
