<svg width="24" height="25" viewBox="0 0 24 25" fill="none" xmlns="http://www.w3.org/2000/svg">
<path d="M11.9982 2.5C8.99043 2.5 7.04018 4.51899 4.73371 5.2549C3.79589 5.55413 3.32697 5.70374 3.1372 5.91465C2.94743 6.12556 2.89186 6.43375 2.78072 7.05013C1.59143 13.646 4.1909 19.744 10.3903 22.1175C11.0564 22.3725 11.3894 22.5 12.0015 22.5C12.6135 22.5 12.9466 22.3725 13.6126 22.1175C19.8116 19.7439 22.4086 13.646 21.219 7.05013C21.1078 6.43364 21.0522 6.1254 20.8624 5.91449C20.6726 5.70358 20.2037 5.55405 19.2659 5.25499C16.9585 4.51915 15.0061 2.5 11.9982 2.5Z" stroke="#00100B" stroke-width="1.5" stroke-linecap="round" stroke-linejoin="round"/>
<path d="M12 7.5L12 9.5" stroke="#00100B" stroke-width="1.5" stroke-linecap="round"/>
</svg>
