<svg width="20" height="23" viewBox="0 0 20 23" fill="none" xmlns="http://www.w3.org/2000/svg">
<path d="M4.57757 14.9816C3.1628 15.824 -0.546635 17.5441 1.71266 19.6966C2.81631 20.748 4.04549 21.5 5.59087 21.5H14.4091C15.9545 21.5 17.1837 20.748 18.2873 19.6966C20.5466 17.5441 16.8372 15.824 15.4224 14.9816C12.1048 13.0061 7.89519 13.0061 4.57757 14.9816Z" stroke="#00100B" stroke-width="1.5" stroke-linecap="round" stroke-linejoin="round"/>
<path d="M14.5 6C14.5 8.48528 12.4853 10.5 10 10.5C7.51472 10.5 5.5 8.48528 5.5 6C5.5 3.51472 7.51472 1.5 10 1.5C12.4853 1.5 14.5 3.51472 14.5 6Z" stroke="#00100B" stroke-width="1.5"/>
</svg>
