<svg width="46" height="32" viewBox="0 0 46 32" fill="none" xmlns="http://www.w3.org/2000/svg">
<rect x="0.5" y="0.5" width="45" height="31" rx="5.5" fill="white"/>
<rect x="0.5" y="0.5" width="45" height="31" rx="5.5" stroke="#F2F4F7"/>
<path fill-rule="evenodd" clip-rule="evenodd" d="M14.3336 21.1441H11.5872L9.52784 13.0563C9.43009 12.6843 9.22255 12.3554 8.91725 12.2003C8.15535 11.8108 7.31579 11.5007 6.3999 11.3444V11.033H10.824C11.4346 11.033 11.8925 11.5007 11.9689 12.044L13.0374 17.878L15.7824 11.033H18.4524L14.3336 21.1441ZM19.9789 21.1441H17.3852L19.5209 11.033H22.1146L19.9789 21.1441ZM25.4702 13.8341C25.5465 13.2895 26.0044 12.9781 26.5387 12.9781C27.3783 12.8999 28.2928 13.0563 29.0561 13.4445L29.514 11.2676C28.7508 10.9562 27.9112 10.7998 27.1493 10.7998C24.6319 10.7998 22.8002 12.2003 22.8002 14.1441C22.8002 15.6228 24.0977 16.3993 25.0136 16.867C26.0044 17.3334 26.3861 17.6448 26.3097 18.1112C26.3097 18.8108 25.5465 19.1222 24.7846 19.1222C23.8687 19.1222 22.9528 18.889 22.1146 18.4994L21.6567 20.6777C22.5725 21.066 23.5634 21.2223 24.4793 21.2223C27.3019 21.2992 29.0561 19.9 29.0561 17.7998C29.0561 15.1551 25.4702 15.0001 25.4702 13.8341ZM38.1332 21.1441L36.0738 11.033H33.8618C33.4038 11.033 32.9459 11.3444 32.7932 11.8108L28.9797 21.1441H31.6497L32.1826 19.6668H35.4632L35.7685 21.1441H38.1332ZM34.2434 13.7559L35.0053 17.5666H32.8696L34.2434 13.7559Z" fill="#172B85"/>
</svg>
