<svg width="157" height="88" viewBox="0 0 157 88" fill="none" xmlns="http://www.w3.org/2000/svg">
<mask id="mask0_78_664" style="mask-type:luminance" maskUnits="userSpaceOnUse" x="0" y="0" width="157" height="88">
<path d="M0 0H157V88H0V0Z" fill="white"/>
</mask>
<g mask="url(#mask0_78_664)">
<path d="M156.891 0.135542L154.672 1.51575C149.167 4.94804 144.109 8.94804 139.495 13.5157C134.885 18.0835 130.844 23.1043 127.359 28.5783L97.2969 75.8543C96.1562 77.6564 94.8073 79.2814 93.25 80.7397C91.6979 82.198 89.9844 83.4428 88.1198 84.4689C86.25 85.4949 84.2865 86.271 82.2188 86.8022C80.1562 87.3282 78.0573 87.5939 75.9271 87.5939H63.1615L106.677 17.9793C107.526 16.6199 108.458 15.3178 109.474 14.0782C110.484 12.8335 111.573 11.6616 112.734 10.5626C113.901 9.45846 115.125 8.43242 116.417 7.4845C117.708 6.53658 119.057 5.672 120.458 4.89596C121.859 4.11992 123.302 3.43242 124.792 2.83867C126.281 2.24492 127.802 1.75012 129.354 1.34908C130.901 0.942834 132.474 0.640749 134.062 0.442833C135.651 0.239708 137.25 0.135542 138.849 0.135542H156.891ZM111.74 1.51575L113.964 0.135542H95.9271C94.3229 0.135542 92.7292 0.239709 91.1354 0.437625C89.5469 0.64075 87.9792 0.942833 86.4271 1.34387C84.875 1.74492 83.3542 2.24492 81.8646 2.83867C80.3802 3.43242 78.9323 4.11471 77.5312 4.89596C76.1302 5.672 74.7865 6.53138 73.4948 7.47929C72.1979 8.42721 70.974 9.45325 69.8125 10.5574C68.651 11.6564 67.5625 12.8282 66.5469 14.073C65.5312 15.3126 64.6042 16.6095 63.75 17.9689L33.3438 66.6043L25.526 54.0835L46.7604 18.8647C53.3958 7.86992 68.224 0.135542 68.224 0.135542C46.026 0.135542 33.2083 -2.55717 23.125 15.9324L0.046875 58.1512L19.8698 87.5939H33C35.1302 87.5939 37.2292 87.3282 39.2917 86.8022C41.3594 86.271 43.3229 85.4949 45.1927 84.4689C47.0625 83.4428 48.7708 82.198 50.3281 80.7397C51.8802 79.2814 53.2292 77.6564 54.3698 75.8543L84.4323 28.5835C87.9115 23.1095 91.9583 18.0835 96.5677 13.5157C101.172 8.94804 106.229 4.94804 111.74 1.51575Z" fill="#332C54"/>
</g>
</svg>
